<svg xmlns="http://www.w3.org/2000/svg" viewBox="0 0 836 514"><defs><style>.cls-1{fill:#fff;}</style></defs><title>clouds-desktop</title><g id="Layer_2" data-name="Layer 2"><g id="Artwork"><circle class="cls-1" cx="736.52" cy="294.91" r="49.09"/><circle class="cls-1" cx="685.49" cy="303.3" r="26.49"/><circle class="cls-1" cx="788.84" cy="294.26" r="26.49"/><circle class="cls-1" cx="800.47" cy="311.05" r="17.44"/><circle class="cls-1" cx="821.79" cy="303.95" r="14.21"/><circle class="cls-1" cx="777.22" cy="320.1" r="17.44"/><circle class="cls-1" cx="604.34" cy="95.42" r="95.42"/><circle class="cls-1" cx="703.53" cy="79.09" r="51.47"/><circle class="cls-1" cx="502.65" cy="96.67" r="51.47"/><circle class="cls-1" cx="480.05" cy="64.03" r="33.9"/><circle class="cls-1" cx="438.62" cy="77.84" r="27.62"/><circle class="cls-1" cx="525.25" cy="46.45" r="33.9"/><circle class="cls-1" cx="383.84" cy="480.5" r="33.5"/><circle class="cls-1" cx="349.02" cy="486.23" r="18.07"/><circle class="cls-1" cx="419.55" cy="480.06" r="18.07"/><circle class="cls-1" cx="427.48" cy="491.52" r="11.9"/><circle class="cls-1" cx="442.03" cy="486.67" r="9.7"/><circle class="cls-1" cx="411.61" cy="497.69" r="11.9"/><circle class="cls-1" cx="106.58" cy="244.5" r="67.5"/><circle class="cls-1" cx="36.41" cy="256.05" r="36.41"/><circle class="cls-1" cx="178.52" cy="243.61" r="36.41"/><circle class="cls-1" cx="194.51" cy="266.7" r="23.98"/><circle class="cls-1" cx="223.82" cy="256.93" r="19.54"/><circle class="cls-1" cx="162.53" cy="279.14" r="23.98"/></g></g></svg>